HIERARCHY
ROOT Hip
{
	OFFSET 0 1.131 0.0052
	CHANNELS 6 Xposition Yposition Zposition Xrotation Yrotation Zrotation
	JOINT Abdomen
	{
		OFFSET 0 -0.047353 -0.05
		CHANNELS 3 Xrotation Zrotation Yrotation
		JOINT Chest
		{
			OFFSET 0 0.132153 0.007439
			CHANNELS 3 Xrotation Zrotation Yrotation
			JOINT Neck
			{
				OFFSET 0 0.3078 0.006161
				CHANNELS 3 Xrotation Zrotation Yrotation
				JOINT Head_comp
				{
					OFFSET 0 0.0884 0.013
					CHANNELS 3 Xrotation Yrotation Zrotation
					End Site
					{
						OFFSET -0 0.156 0.0624
					}
				}
			}
			JOINT Left_Collar
			{
				OFFSET 0.02282 0.250342 0.017193
				CHANNELS 2 Yrotation Zrotation
				JOINT Left_Shoulder
				{
					OFFSET 0.15421 0 0
					CHANNELS 3 Xrotation Yrotation Zrotation
					JOINT Left_Forearm
					{
						OFFSET 0.265212 0 0
						CHANNELS 2 Yrotation Xrotation
						JOINT Left_Hand
						{
							OFFSET 0.27571 0 0
							CHANNELS 2 Zrotation Yrotation
							JOINT L1ProxPhalanx
							{
								OFFSET 0.014142 0.001733 0.014142
								CHANNELS 3 Yrotation Zrotation Xrotation
								JOINT L1MidPhalanx
								{
									OFFSET 0.04 0 0
									CHANNELS 1 Zrotation
									JOINT L1DistPhalanx
									{
										OFFSET 0.035 0 0
										CHANNELS 1 Zrotation
										End Site
										{
											OFFSET 0.029 -0 -0
										}
									}
								}
							}
							JOINT L2ProxPhalanx
							{
								OFFSET 0.0821037 0.001578 0.0219996
								CHANNELS 2 Yrotation Zrotation
								JOINT L2MidPhalanx
								{
									OFFSET 0.04 0 0
									CHANNELS 1 Zrotation
									JOINT L2DistPhalanx
									{
										OFFSET 0.028 0 0
										CHANNELS 1 Zrotation
										End Site
										{
											OFFSET 0.02 -0 -0
										}
									}
								}
							}
							JOINT L3ProxPhalanx
							{
								OFFSET 0.083 0 0
								CHANNELS 2 Yrotation Zrotation
								JOINT L3MidPhalanx
								{
									OFFSET 0.053 0 0
									CHANNELS 1 Zrotation
									JOINT L3DistPhalanx
									{
										OFFSET 0.03 0 0
										CHANNELS 1 Zrotation
										End Site
										{
											OFFSET 0.023 -0 -0
										}
									}
								}
							}
							JOINT L4ProxPhalanx
							{
								OFFSET 0.077274 -0.000761 -0.0207055
								CHANNELS 2 Yrotation Zrotation
								JOINT L4MidPhalanx
								{
									OFFSET 0.05 0 0
									CHANNELS 1 Zrotation
									JOINT L4DistPhalanx
									{
										OFFSET 0.03 0 0
										CHANNELS 1 Zrotation
										End Site
										{
											OFFSET 0.023 -0 -0
										}
									}
								}
							}
							JOINT L5ProxPhalanx
							{
								OFFSET 0.0675499 -0.001644 -0.039
								CHANNELS 2 Yrotation Zrotation
								JOINT L5MidPhalanx
								{
									OFFSET 0.04 0 0
									CHANNELS 1 Zrotation
									JOINT L5DistPhalanx
									{
										OFFSET 0.021 0 0
										CHANNELS 1 Zrotation
										End Site
										{
											OFFSET 0.022 -0 -0
										}
									}
								}
							}
						}
					}
				}
			}
			JOINT Right_Collar
			{
				OFFSET -0.02282 0.250342 0.017193
				CHANNELS 2 Yrotation Zrotation
				JOINT Right_Shoulder
				{
					OFFSET -0.15421 0 0
					CHANNELS 3 Xrotation Yrotation Zrotation
					JOINT Right_Forearm
					{
						OFFSET -0.265212 0 0
						CHANNELS 2 Yrotation Xrotation
						JOINT Right_Hand
						{
							OFFSET -0.27571 3e-006 0
							CHANNELS 2 Zrotation Yrotation
							JOINT R1ProxPhalanx
							{
								OFFSET -0.014142 0.001733 0.014142
								CHANNELS 3 Yrotation Zrotation Xrotation
								JOINT R1MidPhalanx
								{
									OFFSET -0.04 0 0
									CHANNELS 1 Zrotation
									JOINT R1DistPhalanx
									{
										OFFSET -0.035 0 0
										CHANNELS 1 Zrotation
										End Site
										{
											OFFSET -0.029 -0 -0
										}
									}
								}
							}
							JOINT R2ProxPhalanx
							{
								OFFSET -0.0821037 0.001578 0.0219996
								CHANNELS 2 Yrotation Zrotation
								JOINT R2MidPhalanx
								{
									OFFSET -0.04 0 0
									CHANNELS 1 Zrotation
									JOINT R2DistPhalanx
									{
										OFFSET -0.028 0 0
										CHANNELS 1 Zrotation
										End Site
										{
											OFFSET -0.02 -0 -0
										}
									}
								}
							}
							JOINT R3ProxPhalanx
							{
								OFFSET -0.083 0 0
								CHANNELS 2 Yrotation Zrotation
								JOINT R3MidPhalanx
								{
									OFFSET -0.053 0 0
									CHANNELS 1 Zrotation
									JOINT R3DistPhalanx
									{
										OFFSET -0.03 0 0
										CHANNELS 1 Zrotation
										End Site
										{
											OFFSET -0.023 -0 -0
										}
									}
								}
							}
							JOINT R4ProxPhalanx
							{
								OFFSET -0.077274 -0.000761 -0.0207055
								CHANNELS 2 Yrotation Zrotation
								JOINT R4MidPhalanx
								{
									OFFSET -0.05 0 0
									CHANNELS 1 Zrotation
									JOINT R4DistPhalanx
									{
										OFFSET -0.03 0 0
										CHANNELS 1 Zrotation
										End Site
										{
											OFFSET -0.023 -0 -0
										}
									}
								}
							}
							JOINT R5ProxPhalanx
							{
								OFFSET -0.0675499 -0.001644 -0.039
								CHANNELS 2 Yrotation Zrotation
								JOINT R5MidPhalanx
								{
									OFFSET -0.04 0 0
									CHANNELS 1 Zrotation
									JOINT R5DistPhalanx
									{
										OFFSET -0.021 0 0
										CHANNELS 1 Zrotation
										End Site
										{
											OFFSET -0.022 -0 -0
										}
									}
								}
							}
						}
					}
				}
			}
		}
	}
	JOINT Left_Thigh
	{
		OFFSET 0.1118 -0.1612 -0.0442
		CHANNELS 3 Xrotation Zrotation Yrotation
		JOINT Left_Shin
		{
			OFFSET 0 -0.477856 0
			CHANNELS 1 Xrotation
			JOINT Left_Foot
			{
				OFFSET 0 -0.431952 0
				CHANNELS 2 Xrotation Zrotation
				JOINT Left_Toe
				{
					OFFSET 0 -0.0442 0.119
					CHANNELS 1 Xrotation
					End Site
					{
						OFFSET -0 -0 0.07
					}
				}
			}
		}
	}
	JOINT Right_Thigh
	{
		OFFSET -0.1118 -0.1612 -0.0442
		CHANNELS 3 Xrotation Zrotation Yrotation
		JOINT Right_Shin
		{
			OFFSET 0 -0.477856 0
			CHANNELS 1 Xrotation
			JOINT Right_Foot
			{
				OFFSET 0 -0.431952 0
				CHANNELS 2 Xrotation Zrotation
				JOINT Right_Toe
				{
					OFFSET 0 -0.0442 0.119
					CHANNELS 1 Xrotation
					End Site
					{
						OFFSET -0 -0 0.07
					}
				}
			}
		}
	}
}
MOTION
Frames: 15
Frame Time: 0.009975
-0.106043 -0.0600103 0.0394626 -7.21004e-012 2.46087e-009 -5.10943e-006 0 -0 0 0 -0 0 0 -0 0 -0.711859 0.304276 -1.40487e-013 1.63819 -19.6864 -4.98505 -34.5486 -40.8201 -58.1729 6.36255 15.7569 5.09968 -82.7814 29.3771 82.1304 -28.6711 -28.2121 5.46181 1.29917 -11.4709 -2.71086 2.19167 0.170013 -2.38662 -5.86493 -1.34371 -14.2131 12.6945 2.53448 0.910594 -45.0934 57.8837 13.0293 4.8146 35.8876 -3.67268 30.1308 37.3881 62.203 7.11229 -2.66432 -2.67515 76.4774 -10.6855 84.7359 16.5133 11.2603 -4.85938 -1.06847 10.6313 4.8019 -4.99731 1.09718 -0.308398 2.69757 -1.15754 16.7143 -11.4513 -10.9461 -0.771461 46.7712 -51.5981 -15.3702 0.0177261 -0.362576 -0.000112176 0.0240216 -0.0417474 0.362581 0 0.0291311 -0.362576 -0.000184345 0 -0.0291306 0.362581 0 
-0.106047 -0.0600104 0.0395327 4.13245e-011 2.73612e-009 -5.10942e-006 0 -0 0 0 -0 0 0 -0 0 -0.711863 0.304283 6.58934e-014 1.70721 -19.6596 -4.78746 -34.4864 -40.7401 -58.6181 6.2735 15.9487 5.2453 -82.7814 29.6069 82.0219 -28.6703 -28.3269 5.58171 1.30783 -11.4902 -2.80783 2.34634 0.172545 -2.31551 -6.01906 -1.19284 -14.28 12.7561 2.24314 1.00965 -45.247 58.2025 12.9346 4.78496 35.8278 -3.39505 30.1961 37.2875 62.504 7.0209 -2.67053 -2.68437 76.3899 -10.7482 84.626 16.4807 11.2838 -4.8678 -1.06711 10.6849 4.73765 -5.2463 1.20484 -0.056583 3.43355 -1.18766 16.7876 -11.4949 -10.9062 -0.791081 46.9578 -51.9975 -14.8246 0.022141 -0.362297 -0.000139997 0.0240216 -0.0461622 0.362302 0 0.033546 -0.362297 -0.000212112 0 -0.0335453 0.362302 0 
-0.106055 -0.0600104 0.0396279 -1.11112e-011 3.25206e-009 -5.10942e-006 0 -0 0 0 -0 0 0 -0 0 -0.711868 0.304304 -7.64064e-013 1.78533 -19.6305 -4.50705 -34.4123 -40.6173 -59.1546 6.17651 16.2369 5.44266 -82.764 29.7577 81.7953 -28.7034 -28.3702 5.61201 1.30668 -11.478 -3.01813 2.34569 0.173338 -2.23817 -5.83366 -1.17572 -14.375 12.8789 2.21248 1.18199 -45.3333 58.5629 12.7525 4.73924 35.7758 -3.0311 30.2613 37.147 62.8677 6.903 -2.6676 -2.69765 76.3798 -10.8715 84.501 16.4588 11.4206 -4.89883 -1.06872 10.7448 4.68755 -5.25577 1.24597 -0.0458449 3.39482 -1.20369 16.864 -11.5026 -10.7986 -0.805727 47.063 -52.2322 -14.578 0.0281389 -0.361766 -0.000177667 0.0240216 -0.05216 0.361772 0 0.039544 -0.361766 -0.000249679 8.40967e-007 -0.039544 0.361772 0 
-0.10606 -0.0600104 0.0397331 1.88741e-011 3.80907e-009 -5.10942e-006 0 -0 0 0 -0 0 0 -0 0 -0.711875 0.30433 5.46937e-015 1.85404 -19.579 -4.18937 -34.3428 -40.4822 -59.7363 6.06106 16.4328 5.52981 -82.7787 29.757 81.8131 -28.7404 -28.4307 5.70704 1.31487 -11.5097 -3.08581 2.3655 0.173643 -2.1792 -5.8074 -1.19958 -14.456 13.2502 2.5559 1.18812 -45.5229 58.8807 12.6634 4.68121 35.7114 -2.64073 30.3136 36.9921 63.2978 6.76002 -2.65605 -2.74087 76.3819 -10.9562 84.5028 16.4787 11.5012 -4.92583 -1.06788 10.7528 4.67058 -5.25681 1.25967 -0.0404325 3.45339 -1.19289 16.9842 -11.6384 -10.7644 -0.779851 47.2154 -52.3601 -14.6942 0.0347624 -0.361463 -0.000219306 0.0240216 -0.0587834 0.361468 0 0.0461666 -0.361463 -0.000291255 2.25836e-006 -0.046168 0.361468 0 
-0.106061 -0.0600105 0.0398525 -2.25655e-011 4.43759e-009 -5.10942e-006 0 -0 0 0 -0 0 0 -0 0 -0.711883 0.304328 7.58351e-014 1.91775 -19.5319 -3.81202 -34.2575 -40.3066 -60.3755 5.94142 16.6437 5.59386 -82.7981 29.8124 81.7067 -28.7674 -28.5065 5.77439 1.30891 -11.6916 -2.56416 2.43466 0.168848 -2.15752 -5.81135 -1.17132 -14.5074 13.4945 2.62348 1.22125 -45.7321 59.2418 12.4994 4.61445 35.6364 -2.182 30.3611 36.815 63.7921 6.58404 -2.63271 -2.8061 76.4079 -11.0423 84.6311 16.54 11.4724 -4.95547 -1.0738 10.844 4.68731 -5.25146 1.24393 -0.0379191 3.38471 -1.16853 17.0627 -11.8254 -10.6819 -0.749576 47.3527 -52.4373 -14.9442 0.0422859 -0.361398 -0.000266726 0.0240216 -0.0663067 0.361403 0 0.0536901 -0.361398 -0.000338661 2.28365e-006 -0.0536913 0.361403 0 
-0.106056 -0.0600107 0.0399904 9.93064e-012 5.15629e-009 -5.10942e-006 0 -0 0 0 -0 0 0 -0 0 -0.711893 0.304333 -3.66232e-013 1.99505 -19.4692 -3.37732 -34.2009 -40.1185 -61.0427 5.81526 16.874 5.58899 -82.8028 29.9134 81.6226 -28.7923 -28.5901 5.88696 1.30651 -11.8705 -1.97088 2.59626 0.167352 -2.12741 -5.84471 -1.0599 -14.6299 13.5515 2.31168 1.08631 -45.9829 59.4696 12.5101 4.5221 35.5497 -1.69313 30.4006 36.6239 64.3388 6.40383 -2.63313 -2.89649 76.5164 -11.1981 84.6903 16.5861 11.5534 -4.9945 -1.07994 10.9698 5.21798 -5.23532 1.22173 -0.032434 3.38062 -1.11397 17.126 -11.9535 -10.764 -0.68944 47.4042 -52.5322 -14.9818 0.0509682 -0.361716 -0.000321785 0.0240216 -0.0749889 0.361721 0 0.0623725 -0.361716 -0.000393779 2.53571e-006 -0.0623738 0.361721 0 
-0.106043 -0.0600109 0.040146 1.16832e-011 5.99325e-009 -5.10942e-006 0 -0 0 0 -0 0 0 -0 0 -0.711904 0.304317 1.25428e-012 2.08752 -19.4001 -2.91181 -34.1477 -39.9405 -61.719 5.68605 17.0772 5.50237 -82.8604 29.9441 81.745 -28.863 -28.6944 6.05385 1.32004 -11.9522 -1.79627 2.79861 0.166535 -1.89909 -5.90383 -1.0487 -14.9846 14.0452 2.53757 0.41517 -46.3969 59.264 12.8845 4.4066 35.459 -1.15435 30.4411 36.3983 64.9242 6.21641 -2.66536 -2.9744 76.6516 -11.3962 84.5382 16.5917 11.6992 -5.03687 -1.08564 11.0956 5.65974 -5.20694 1.19551 -0.0560018 3.38936 -1.08418 17.1895 -12.0623 -10.8878 -0.632476 47.5391 -52.7938 -14.675 0.0607662 -0.36252 -0.000384506 0.0240216 -0.0847866 0.362526 0 0.0721704 -0.36252 -0.000456662 2.5912e-006 -0.0721715 0.362526 0 
-0.106028 -0.0600113 0.0403116 8.75598e-012 6.9108e-009 -5.10942e-006 0 -0 0 0 -0 0 0 -0 0 -0.711916 0.304266 1.54262e-012 2.17721 -19.3431 -2.51528 -34.0034 -39.7973 -62.4022 5.62238 17.3005 5.43498 -82.9222 29.9757 81.7731 -28.9189 -28.7684 6.19626 1.33638 -12.0018 -1.86672 2.99579 0.167922 -1.61611 -5.94745 -1.0979 -15.3906 14.7314 2.92322 -0.330975 -46.8755 58.9496 13.3409 4.27448 35.3678 -0.600025 30.4598 36.1573 65.5345 6.03532 -2.70154 -3.02854 76.7127 -11.5403 84.4693 16.6196 11.643 -5.06737 -1.0968 11.2375 5.26165 -5.21643 1.12175 -0.0405242 3.1592 -1.10936 17.2107 -12.1522 -11.0257 -0.653314 47.6085 -53.15 -13.896 0.0711972 -0.363505 -0.000451726 0.0240216 -0.0952174 0.36351 0 0.0826015 -0.363505 -0.00052408 2.52717e-006 -0.0826023 0.36351 0 
-0.106017 -0.0600116 0.040476 3.11283e-012 7.85948e-009 -5.10942e-006 0 -0 0 0 -0 0 0 -0 0 -0.711929 0.30421 1.5819e-012 2.2619 -19.3003 -2.29171 -33.7156 -39.7188 -63.0955 5.66837 17.4834 5.47622 -83.0308 30.093 81.7077 -28.9327 -28.9208 6.30405 1.35686 -12.1096 -1.96897 3.11519 0.181922 -1.54376 -5.9108 -1.17222 -15.6018 15.2836 3.2668 -0.797536 -47.1777 58.9175 13.5988 4.13369 35.2719 -0.0844512 30.4456 35.9211 66.1498 5.87896 -2.7257 -3.0742 76.7703 -11.6165 84.4671 16.6391 11.6391 -5.0917 -1.10322 11.2379 4.97766 -5.26244 1.0973 -0.0963675 3.13392 -1.14765 17.2459 -12.1977 -11.2085 -0.681539 47.6224 -53.2486 -13.832 0.0815486 -0.364215 -0.0005184 0.0240216 -0.105569 0.36422 0 0.0929527 -0.364215 -0.000590893 2.59974e-006 -0.0929534 0.36422 0 
-0.106011 -0.0600119 0.0406371 7.86834e-012 8.75953e-009 -5.10942e-006 0 -0 0 0 -0 0 0 -0 0 -0.711941 0.304178 1.65995e-013 2.33977 -19.2728 -2.20565 -33.2962 -39.7064 -63.7867 5.78819 17.6758 5.54517 -83.1012 30.2032 81.671 -28.9644 -29.0187 6.44263 1.36717 -12.1975 -2.04562 3.22911 0.185441 -1.58159 -5.90827 -1.17216 -15.8696 15.6885 3.51019 -1.09791 -47.5271 59.0561 13.7056 4.00599 35.1701 0.410913 30.395 35.6858 66.7618 5.73703 -2.68831 -3.09737 76.8514 -11.6604 84.5015 16.6759 11.5883 -5.10584 -1.11316 11.3515 4.5339 -5.29746 0.952557 0.122984 3.14667 -1.19542 17.1698 -12.1717 -11.0516 -0.716269 47.6998 -53.4852 -13.8499 0.0916959 -0.364561 -0.000583451 0.0240216 -0.115716 0.364566 0 0.103101 -0.36456 -0.000656017 1.70755e-006 -0.103101 0.364566 0 
-0.106001 -0.0600123 0.0408029 3.87339e-012 9.67453e-009 -5.10942e-006 0 -0 0 0 -0 0 0 -0 0 -0.711954 0.304179 -2.61981e-013 2.43004 -19.2296 -2.07371 -32.9214 -39.6818 -64.4779 5.88363 17.9089 5.61553 -83.045 30.3286 81.5342 -28.969 -29.0165 6.54599 1.36224 -12.2606 -1.68191 3.34594 0.171276 -1.82598 -5.4912 -1.05838 -16.1277 15.821 3.56411 -1.08921 -47.8696 59.3924 13.6412 3.87331 35.0594 0.853013 30.3114 35.4744 67.3707 5.62362 -2.63157 -3.11965 76.913 -11.7286 84.3691 16.6848 11.4585 -5.09873 -1.12281 11.4036 4.24422 -5.327 0.827519 0.277353 3.2718 -1.22503 17.0905 -12.2739 -10.6052 -0.750413 47.7411 -54.0576 -12.6886 0.102133 -0.365167 -0.000650963 0.0240216 -0.126153 0.365173 0 0.113538 -0.365167 -0.000723652 9.00731e-007 -0.113537 0.365173 0 
-0.105989 -0.0600127 0.0409768 2.81951e-012 1.06277e-008 -5.10941e-006 0 -0 0 0 -0 0 0 -0 0 -0.711967 0.304149 2.02522e-012 2.52196 -19.208 -1.75785 -32.6231 -39.4908 -65.2263 5.91389 18.1179 5.76934 -83.0248 30.5663 81.422 -28.9659 -29.0918 6.62596 1.35702 -12.4275 -1.29086 3.39121 0.151045 -2.35828 -4.44138 -1.02718 -16.3257 15.8179 3.62565 -1.02993 -48.2095 59.7379 13.5197 3.73689 34.9614 1.30145 30.2055 35.2529 67.9926 5.52065 -2.58937 -3.17769 76.9762 -11.7902 84.1748 16.6325 11.4512 -5.03754 -1.11556 11.195 4.31206 -5.28995 0.923249 0.179665 3.14943 -1.18584 17.1869 -12.4568 -10.6452 -0.732871 47.7947 -54.307 -12.1339 0.113089 -0.365957 -0.000722338 0.0240216 -0.137109 0.365963 0 0.124495 -0.365957 -0.000795185 8.02547e-007 -0.124493 0.365963 0 
-0.105979 -0.0600132 0.041158 2.65392e-012 1.16367e-008 -5.10942e-006 0 -0 0 0 -0 0 0 -0 0 -0.71198 0.304125 -1.08639e-012 2.6096 -19.1973 -1.37743 -32.3083 -39.2464 -66.0093 5.9134 18.292 5.95009 -83.0818 30.8368 81.3487 -29.0199 -29.137 6.73546 1.35516 -12.5488 -1.39824 3.38125 0.125457 -2.9037 -3.15981 -1.09933 -16.6532 15.9405 3.69651 -1.18491 -48.7285 59.9283 13.5197 3.61752 34.8755 1.79817 30.083 34.9794 68.632 5.407 -2.47969 -3.22689 77.0691 -11.8284 83.9844 16.5996 11.512 -4.97524 -1.10898 11.0454 4.48195 -5.25474 0.91216 0.427973 2.99413 -1.15589 17.2671 -12.5157 -10.9627 -0.733329 47.8946 -54.5083 -11.7132 0.124498 -0.366602 -0.000796617 0.0240216 -0.148517 0.366608 0 0.135902 -0.366602 -0.000869587 2.23306e-006 -0.135901 0.366608 0 
-0.105962 -0.0600138 0.0413445 6.76209e-013 1.26689e-008 -5.10941e-006 0 -0 0 0 -0 0 0 -0 0 -0.711995 0.304116 1.90308e-012 2.70715 -19.1653 -1.0166 -32.0066 -39.0537 -66.7803 5.90201 18.4652 6.14333 -83.1606 31.1436 81.2641 -29.0653 -29.1212 6.76847 1.35395 -12.589 -1.44704 3.2954 0.103042 -3.40219 -1.86144 -1.20968 -16.963 16.098 3.91459 -1.35999 -49.0832 60.0679 13.489 3.49292 34.7904 2.29639 29.954 34.6743 69.2721 5.29471 -2.32141 -3.21355 77.151 -11.895 83.7864 16.5717 11.5209 -4.97118 -1.11383 11.0194 4.59265 -5.2923 0.781981 0.528262 2.73835 -1.19937 17.2638 -12.5735 -11.1498 -0.766167 47.8832 -54.5723 -11.8298 0.136247 -0.367663 -0.000874332 0.0240216 -0.160266 0.367669 0 0.147651 -0.367663 -0.000947511 1.51493e-006 -0.14765 0.367669 0 
-0.105944 -0.0600144 0.0415332 -9.62822e-013 1.37402e-008 -5.10941e-006 0 -0 0 0 -0 0 0 -0 0 -0.71201 0.304068 1.17208e-012 2.79712 -19.1524 -0.67168 -31.668 -38.8516 -67.5256 5.91275 18.6933 6.30539 -83.2089 31.433 81.2151 -29.0583 -29.086 6.79154 1.35631 -12.7339 -1.54891 3.21336 0.0955436 -4.24306 -0.497627 -1.25963 -17.1775 16.0492 4.38012 -1.37841 -49.3366 60.2263 13.4242 3.37265 34.7235 2.83183 29.8041 34.3284 69.9186 5.1778 -2.15539 -3.15691 77.2123 -11.9266 83.6227 16.5366 11.4684 -4.98256 -1.11357 11.0445 4.33065 -5.30469 0.828618 0.415546 2.48325 -1.23038 17.2326 -12.5149 -11.3706 -0.814048 47.7757 -54.3109 -12.8219 0.148127 -0.368785 -0.000953454 0.0240216 -0.172145 0.368791 0 0.159531 -0.368785 -0.00102686 1.30964e-006 -0.159529 0.368791 0 
